<mxfile host="app.diagrams.net" agent="Mozilla/5.0 (Windows NT 10.0; Win64; x64) AppleWebKit/537.36 (KHTML, like Gecko) Chrome/132.0.0.0 Safari/537.36" version="26.0.6">
  <diagram name="第 1 页" id="cZ7u69yzbtudN1ncTSjC">
    <mxGraphModel dx="1430" dy="757" grid="1" gridSize="10" guides="1" tooltips="1" connect="1" arrows="1" fold="1" page="1" pageScale="1" pageWidth="827" pageHeight="1169" math="0" shadow="0">
      <root>
        <mxCell id="0" />
        <mxCell id="1" parent="0" />
        <mxCell id="Z9fYmXyzhScZ4xVaVHmG-1" style="edgeStyle=orthogonalEdgeStyle;rounded=0;orthogonalLoop=1;jettySize=auto;html=1;exitX=0.5;exitY=1;exitDx=0;exitDy=0;entryX=0.5;entryY=0;entryDx=0;entryDy=0;strokeColor=#B3B3B3;" edge="1" parent="1" source="Z9fYmXyzhScZ4xVaVHmG-3" target="Z9fYmXyzhScZ4xVaVHmG-26">
          <mxGeometry relative="1" as="geometry" />
        </mxCell>
        <mxCell id="Z9fYmXyzhScZ4xVaVHmG-2" style="edgeStyle=orthogonalEdgeStyle;rounded=0;orthogonalLoop=1;jettySize=auto;html=1;exitX=0.5;exitY=0;exitDx=0;exitDy=0;curved=1;dashed=1;" edge="1" parent="1" source="Z9fYmXyzhScZ4xVaVHmG-3">
          <mxGeometry relative="1" as="geometry">
            <mxPoint x="420.1428571428571" y="40" as="targetPoint" />
          </mxGeometry>
        </mxCell>
        <mxCell id="Z9fYmXyzhScZ4xVaVHmG-3" value="" style="ellipse;whiteSpace=wrap;html=1;aspect=fixed;fillColor=#000000;" vertex="1" parent="1">
          <mxGeometry x="400" y="80" width="40" height="40" as="geometry" />
        </mxCell>
        <mxCell id="Z9fYmXyzhScZ4xVaVHmG-4" value="&lt;span style=&quot;font-size: 24px;&quot;&gt;a&lt;/span&gt;" style="ellipse;whiteSpace=wrap;html=1;aspect=fixed;fillColor=#3399FF;" vertex="1" parent="1">
          <mxGeometry x="280" y="160" width="40" height="40" as="geometry" />
        </mxCell>
        <mxCell id="Z9fYmXyzhScZ4xVaVHmG-5" value="&lt;span style=&quot;font-size: 24px;&quot;&gt;b&lt;/span&gt;" style="ellipse;whiteSpace=wrap;html=1;aspect=fixed;fillColor=#3399FF;" vertex="1" parent="1">
          <mxGeometry x="280" y="240" width="40" height="40" as="geometry" />
        </mxCell>
        <mxCell id="Z9fYmXyzhScZ4xVaVHmG-6" style="edgeStyle=orthogonalEdgeStyle;rounded=0;orthogonalLoop=1;jettySize=auto;html=1;exitX=0.5;exitY=1;exitDx=0;exitDy=0;entryX=0.5;entryY=0;entryDx=0;entryDy=0;strokeColor=#B3B3B3;" edge="1" parent="1" source="Z9fYmXyzhScZ4xVaVHmG-7" target="Z9fYmXyzhScZ4xVaVHmG-8">
          <mxGeometry relative="1" as="geometry" />
        </mxCell>
        <mxCell id="Z9fYmXyzhScZ4xVaVHmG-7" value="&lt;span style=&quot;font-size: 24px;&quot;&gt;d&lt;/span&gt;" style="ellipse;whiteSpace=wrap;html=1;aspect=fixed;fillColor=#3399FF;strokeColor=#FF0000;" vertex="1" parent="1">
          <mxGeometry x="240" y="320" width="40" height="40" as="geometry" />
        </mxCell>
        <mxCell id="Z9fYmXyzhScZ4xVaVHmG-8" value="&lt;span style=&quot;font-size: 24px;&quot;&gt;&lt;font style=&quot;color: rgb(255, 255, 255);&quot;&gt;k&lt;/font&gt;&lt;/span&gt;" style="ellipse;whiteSpace=wrap;html=1;aspect=fixed;fillColor=#000000;strokeColor=#FF0000;" vertex="1" parent="1">
          <mxGeometry x="240" y="400" width="40" height="40" as="geometry" />
        </mxCell>
        <mxCell id="Z9fYmXyzhScZ4xVaVHmG-9" value="" style="endArrow=classic;html=1;rounded=0;exitX=0.5;exitY=1;exitDx=0;exitDy=0;entryX=0.5;entryY=0;entryDx=0;entryDy=0;" edge="1" parent="1" source="Z9fYmXyzhScZ4xVaVHmG-4" target="Z9fYmXyzhScZ4xVaVHmG-5">
          <mxGeometry width="50" height="50" relative="1" as="geometry">
            <mxPoint x="380" y="250" as="sourcePoint" />
            <mxPoint x="430" y="200" as="targetPoint" />
          </mxGeometry>
        </mxCell>
        <mxCell id="Z9fYmXyzhScZ4xVaVHmG-10" value="" style="endArrow=classic;html=1;rounded=0;exitX=0;exitY=1;exitDx=0;exitDy=0;entryX=0.5;entryY=0;entryDx=0;entryDy=0;strokeColor=#B3B3B3;" edge="1" parent="1" source="Z9fYmXyzhScZ4xVaVHmG-5" target="Z9fYmXyzhScZ4xVaVHmG-7">
          <mxGeometry width="50" height="50" relative="1" as="geometry">
            <mxPoint x="380" y="250" as="sourcePoint" />
            <mxPoint x="430" y="200" as="targetPoint" />
          </mxGeometry>
        </mxCell>
        <mxCell id="Z9fYmXyzhScZ4xVaVHmG-11" style="edgeStyle=orthogonalEdgeStyle;rounded=0;orthogonalLoop=1;jettySize=auto;html=1;exitX=0.5;exitY=1;exitDx=0;exitDy=0;entryX=0.5;entryY=0;entryDx=0;entryDy=0;" edge="1" parent="1" source="Z9fYmXyzhScZ4xVaVHmG-13" target="Z9fYmXyzhScZ4xVaVHmG-16">
          <mxGeometry relative="1" as="geometry" />
        </mxCell>
        <mxCell id="Z9fYmXyzhScZ4xVaVHmG-12" style="edgeStyle=orthogonalEdgeStyle;rounded=0;orthogonalLoop=1;jettySize=auto;html=1;exitX=1;exitY=0;exitDx=0;exitDy=0;entryX=0;entryY=1;entryDx=0;entryDy=0;curved=1;dashed=1;strokeColor=#B3B3B3;" edge="1" parent="1" source="Z9fYmXyzhScZ4xVaVHmG-13" target="Z9fYmXyzhScZ4xVaVHmG-26">
          <mxGeometry relative="1" as="geometry">
            <Array as="points">
              <mxPoint x="354" y="194" />
            </Array>
          </mxGeometry>
        </mxCell>
        <mxCell id="Z9fYmXyzhScZ4xVaVHmG-13" value="&lt;span style=&quot;font-size: 24px;&quot;&gt;c&lt;/span&gt;&lt;span style=&quot;color: rgba(0, 0, 0, 0); font-family: monospace; font-size: 0px; text-align: start; text-wrap-mode: nowrap;&quot;&gt;%3CmxGraphModel%3E%3Croot%3E%3CmxCell%20id%3D%220%22%2F%3E%3CmxCell%20id%3D%221%22%20parent%3D%220%22%2F%3E%3CmxCell%20id%3D%222%22%20value%3D%22%26lt%3Bspan%20style%3D%26quot%3Bfont-size%3A%2024px%3B%26quot%3B%26gt%3Ba%26lt%3B%2Fspan%26gt%3B%22%20style%3D%22ellipse%3BwhiteSpace%3Dwrap%3Bhtml%3D1%3Baspect%3Dfixed%3B%22%20vertex%3D%221%22%20parent%3D%221%22%3E%3CmxGeometry%20x%3D%22280%22%20y%3D%22200%22%20width%3D%2240%22%20height%3D%2240%22%20as%3D%22geometry%22%2F%3E%3C%2FmxCell%3E%3C%2Froot%3E%3C%2FmxGraphModel%3E&lt;/span&gt;" style="ellipse;whiteSpace=wrap;html=1;aspect=fixed;fillColor=#CC00CC;" vertex="1" parent="1">
          <mxGeometry x="320" y="320" width="40" height="40" as="geometry" />
        </mxCell>
        <mxCell id="Z9fYmXyzhScZ4xVaVHmG-14" style="edgeStyle=orthogonalEdgeStyle;rounded=0;orthogonalLoop=1;jettySize=auto;html=1;exitX=0.5;exitY=1;exitDx=0;exitDy=0;entryX=0.5;entryY=0;entryDx=0;entryDy=0;strokeColor=#B3B3B3;" edge="1" parent="1" source="Z9fYmXyzhScZ4xVaVHmG-16" target="Z9fYmXyzhScZ4xVaVHmG-19">
          <mxGeometry relative="1" as="geometry" />
        </mxCell>
        <mxCell id="Z9fYmXyzhScZ4xVaVHmG-15" style="edgeStyle=orthogonalEdgeStyle;rounded=0;orthogonalLoop=1;jettySize=auto;html=1;exitX=1;exitY=0;exitDx=0;exitDy=0;entryX=0;entryY=1;entryDx=0;entryDy=0;curved=1;strokeColor=#CC00CC;" edge="1" parent="1" source="Z9fYmXyzhScZ4xVaVHmG-16" target="Z9fYmXyzhScZ4xVaVHmG-28">
          <mxGeometry relative="1" as="geometry">
            <Array as="points">
              <mxPoint x="380" y="406" />
              <mxPoint x="380" y="274" />
            </Array>
          </mxGeometry>
        </mxCell>
        <mxCell id="Z9fYmXyzhScZ4xVaVHmG-16" value="&lt;span style=&quot;font-size: 24px;&quot;&gt;h&lt;/span&gt;&lt;span style=&quot;color: rgba(0, 0, 0, 0); font-family: monospace; font-size: 0px; text-align: start; text-wrap-mode: nowrap;&quot;&gt;%3CmxGraphModel%3E%3Croot%3E%3CmxCell%20id%3D%220%22%2F%3E%3CmxCell%20id%3D%221%22%20parent%3D%220%22%2F%3E%3CmxCell%20id%3D%222%22%20value%3D%22%26lt%3Bspan%20style%3D%26quot%3Bfont-size%3A%2024px%3B%26quot%3B%26gt%3Ba%26lt%3B%2Fspan%26gt%3B%22%20style%3D%22ellipse%3BwhiteSpace%3Dwrap%3Bhtml%3D1%3Baspect%3Dfixed%3B%22%20vertex%3D%221%22%20parent%3D%221%22%3E%3CmxGeometry%20x%3D%22280%22%20y%3D%22200%22%20width%3D%2240%22%20height%3D%2240%22%20as%3D%22geometry%22%2F%3E%3C%2FmxCell%3E%3C%2Froot%3E%3C%2FmxGraphModel%3E&lt;/span&gt;" style="ellipse;whiteSpace=wrap;html=1;aspect=fixed;fillColor=#CC00CC;" vertex="1" parent="1">
          <mxGeometry x="320" y="400" width="40" height="40" as="geometry" />
        </mxCell>
        <mxCell id="Z9fYmXyzhScZ4xVaVHmG-17" style="edgeStyle=orthogonalEdgeStyle;rounded=0;orthogonalLoop=1;jettySize=auto;html=1;exitX=0.5;exitY=1;exitDx=0;exitDy=0;entryX=0.5;entryY=0;entryDx=0;entryDy=0;strokeColor=#B3B3B3;" edge="1" parent="1" source="Z9fYmXyzhScZ4xVaVHmG-19" target="Z9fYmXyzhScZ4xVaVHmG-22">
          <mxGeometry relative="1" as="geometry" />
        </mxCell>
        <mxCell id="Z9fYmXyzhScZ4xVaVHmG-18" style="edgeStyle=orthogonalEdgeStyle;rounded=0;orthogonalLoop=1;jettySize=auto;html=1;exitX=1;exitY=0;exitDx=0;exitDy=0;entryX=0;entryY=1;entryDx=0;entryDy=0;dashed=1;curved=1;strokeColor=#B3B3B3;" edge="1" parent="1" source="Z9fYmXyzhScZ4xVaVHmG-19" target="Z9fYmXyzhScZ4xVaVHmG-36">
          <mxGeometry relative="1" as="geometry">
            <Array as="points">
              <mxPoint x="354" y="540" />
              <mxPoint x="460" y="540" />
              <mxPoint x="460" y="194" />
            </Array>
          </mxGeometry>
        </mxCell>
        <mxCell id="Z9fYmXyzhScZ4xVaVHmG-19" value="&lt;span style=&quot;font-size: 24px;&quot;&gt;i&lt;/span&gt;" style="ellipse;whiteSpace=wrap;html=1;aspect=fixed;fillColor=#00CC00;" vertex="1" parent="1">
          <mxGeometry x="320" y="480" width="40" height="40" as="geometry" />
        </mxCell>
        <mxCell id="Z9fYmXyzhScZ4xVaVHmG-20" style="edgeStyle=orthogonalEdgeStyle;rounded=0;orthogonalLoop=1;jettySize=auto;html=1;exitX=0.5;exitY=1;exitDx=0;exitDy=0;entryX=0.5;entryY=0;entryDx=0;entryDy=0;strokeColor=#B3B3B3;" edge="1" parent="1" source="Z9fYmXyzhScZ4xVaVHmG-22" target="Z9fYmXyzhScZ4xVaVHmG-23">
          <mxGeometry relative="1" as="geometry" />
        </mxCell>
        <mxCell id="Z9fYmXyzhScZ4xVaVHmG-21" style="edgeStyle=orthogonalEdgeStyle;rounded=0;orthogonalLoop=1;jettySize=auto;html=1;exitX=1;exitY=0;exitDx=0;exitDy=0;entryX=0;entryY=1;entryDx=0;entryDy=0;curved=1;dashed=1;strokeColor=#B3B3B3;" edge="1" parent="1" source="Z9fYmXyzhScZ4xVaVHmG-22" target="Z9fYmXyzhScZ4xVaVHmG-38">
          <mxGeometry relative="1" as="geometry">
            <Array as="points">
              <mxPoint x="470" y="566" />
              <mxPoint x="470" y="274" />
            </Array>
          </mxGeometry>
        </mxCell>
        <mxCell id="Z9fYmXyzhScZ4xVaVHmG-22" value="&lt;span style=&quot;font-size: 24px;&quot;&gt;j&lt;/span&gt;" style="ellipse;whiteSpace=wrap;html=1;aspect=fixed;fillColor=#00CC00;" vertex="1" parent="1">
          <mxGeometry x="320" y="560" width="40" height="40" as="geometry" />
        </mxCell>
        <mxCell id="Z9fYmXyzhScZ4xVaVHmG-23" value="&lt;span style=&quot;font-size: 24px;&quot;&gt;&lt;font style=&quot;color: rgb(255, 255, 255);&quot;&gt;n&lt;/font&gt;&lt;/span&gt;" style="ellipse;whiteSpace=wrap;html=1;aspect=fixed;fillColor=#000000;strokeColor=#FF0000;" vertex="1" parent="1">
          <mxGeometry x="320" y="640" width="40" height="40" as="geometry" />
        </mxCell>
        <mxCell id="Z9fYmXyzhScZ4xVaVHmG-24" value="" style="endArrow=classic;html=1;rounded=0;exitX=1;exitY=1;exitDx=0;exitDy=0;entryX=0.5;entryY=0;entryDx=0;entryDy=0;" edge="1" parent="1" source="Z9fYmXyzhScZ4xVaVHmG-5" target="Z9fYmXyzhScZ4xVaVHmG-13">
          <mxGeometry width="50" height="50" relative="1" as="geometry">
            <mxPoint x="380" y="380" as="sourcePoint" />
            <mxPoint x="430" y="330" as="targetPoint" />
          </mxGeometry>
        </mxCell>
        <mxCell id="Z9fYmXyzhScZ4xVaVHmG-25" style="edgeStyle=orthogonalEdgeStyle;rounded=0;orthogonalLoop=1;jettySize=auto;html=1;exitX=0.5;exitY=1;exitDx=0;exitDy=0;entryX=0.5;entryY=0;entryDx=0;entryDy=0;strokeColor=#B3B3B3;" edge="1" parent="1" source="Z9fYmXyzhScZ4xVaVHmG-26" target="Z9fYmXyzhScZ4xVaVHmG-28">
          <mxGeometry relative="1" as="geometry" />
        </mxCell>
        <mxCell id="Z9fYmXyzhScZ4xVaVHmG-26" value="&lt;span style=&quot;font-size: 24px;&quot;&gt;c&lt;/span&gt;&lt;span style=&quot;color: rgba(0, 0, 0, 0); font-family: monospace; font-size: 0px; text-align: start; text-wrap-mode: nowrap;&quot;&gt;%3CmxGraphModel%3E%3Croot%3E%3CmxCell%20id%3D%220%22%2F%3E%3CmxCell%20id%3D%221%22%20parent%3D%220%22%2F%3E%3CmxCell%20id%3D%222%22%20value%3D%22%26lt%3Bspan%20style%3D%26quot%3Bfont-size%3A%2024px%3B%26quot%3B%26gt%3Ba%26lt%3B%2Fspan%26gt%3B%22%20style%3D%22ellipse%3BwhiteSpace%3Dwrap%3Bhtml%3D1%3Baspect%3Dfixed%3B%22%20vertex%3D%221%22%20parent%3D%221%22%3E%3CmxGeometry%20x%3D%22280%22%20y%3D%22200%22%20width%3D%2240%22%20height%3D%2240%22%20as%3D%22geometry%22%2F%3E%3C%2FmxCell%3E%3C%2Froot%3E%3C%2FmxGraphModel%3E&lt;/span&gt;" style="ellipse;whiteSpace=wrap;html=1;aspect=fixed;fillColor=#CC00CC;" vertex="1" parent="1">
          <mxGeometry x="400" y="160" width="40" height="40" as="geometry" />
        </mxCell>
        <mxCell id="Z9fYmXyzhScZ4xVaVHmG-27" style="edgeStyle=orthogonalEdgeStyle;rounded=0;orthogonalLoop=1;jettySize=auto;html=1;exitX=0.5;exitY=1;exitDx=0;exitDy=0;entryX=0.5;entryY=0;entryDx=0;entryDy=0;" edge="1" parent="1" source="Z9fYmXyzhScZ4xVaVHmG-28" target="Z9fYmXyzhScZ4xVaVHmG-30">
          <mxGeometry relative="1" as="geometry" />
        </mxCell>
        <mxCell id="Z9fYmXyzhScZ4xVaVHmG-28" value="&lt;span style=&quot;font-size: 24px;&quot;&gt;h&lt;/span&gt;&lt;span style=&quot;color: rgba(0, 0, 0, 0); font-family: monospace; font-size: 0px; text-align: start; text-wrap-mode: nowrap;&quot;&gt;%3CmxGraphModel%3E%3Croot%3E%3CmxCell%20id%3D%220%22%2F%3E%3CmxCell%20id%3D%221%22%20parent%3D%220%22%2F%3E%3CmxCell%20id%3D%222%22%20value%3D%22%26lt%3Bspan%20style%3D%26quot%3Bfont-size%3A%2024px%3B%26quot%3B%26gt%3Bc%26lt%3B%2Fspan%26gt%3B%26lt%3Bspan%20style%3D%26quot%3Bcolor%3A%20rgba(0%2C%200%2C%200%2C%200)%3B%20font-family%3A%20monospace%3B%20font-size%3A%200px%3B%20text-align%3A%20start%3B%20text-wrap-mode%3A%20nowrap%3B%26quot%3B%26gt%3B%253CmxGraphModel%253E%253Croot%253E%253CmxCell%2520id%253D%25220%2522%252F%253E%253CmxCell%2520id%253D%25221%2522%2520parent%253D%25220%2522%252F%253E%253CmxCell%2520id%253D%25222%2522%2520value%253D%2522%2526lt%253Bspan%2520style%253D%2526quot%253Bfont-size%253A%252024px%253B%2526quot%253B%2526gt%253Ba%2526lt%253B%252Fspan%2526gt%253B%2522%2520style%253D%2522ellipse%253BwhiteSpace%253Dwrap%253Bhtml%253D1%253Baspect%253Dfixed%253B%2522%2520vertex%253D%25221%2522%2520parent%253D%25221%2522%253E%253CmxGeometry%2520x%253D%2522280%2522%2520y%253D%2522200%2522%2520width%253D%252240%2522%2520height%253D%252240%2522%2520as%253D%2522geometry%2522%252F%253E%253C%252FmxCell%253E%253C%252Froot%253E%253C%252FmxGraphModel%253E%26lt%3B%2Fspan%26gt%3B%22%20style%3D%22ellipse%3BwhiteSpace%3Dwrap%3Bhtml%3D1%3Baspect%3Dfixed%3B%22%20vertex%3D%221%22%20parent%3D%221%22%3E%3CmxGeometry%20x%3D%22320%22%20y%3D%22320%22%20width%3D%2240%22%20height%3D%2240%22%20as%3D%22geometry%22%2F%3E%3C%2FmxCell%3E%3C%2Froot%3E%3C%2FmxGraphModel%3E&lt;/span&gt;" style="ellipse;whiteSpace=wrap;html=1;aspect=fixed;fillColor=#CC00CC;" vertex="1" parent="1">
          <mxGeometry x="400" y="240" width="40" height="40" as="geometry" />
        </mxCell>
        <mxCell id="Z9fYmXyzhScZ4xVaVHmG-29" style="edgeStyle=orthogonalEdgeStyle;rounded=0;orthogonalLoop=1;jettySize=auto;html=1;exitX=0.5;exitY=1;exitDx=0;exitDy=0;entryX=0.5;entryY=0;entryDx=0;entryDy=0;" edge="1" parent="1" source="Z9fYmXyzhScZ4xVaVHmG-30" target="Z9fYmXyzhScZ4xVaVHmG-33">
          <mxGeometry relative="1" as="geometry" />
        </mxCell>
        <mxCell id="Z9fYmXyzhScZ4xVaVHmG-30" value="&lt;span style=&quot;font-size: 24px;&quot;&gt;n&lt;/span&gt;" style="ellipse;whiteSpace=wrap;html=1;aspect=fixed;fillColor=#999999;" vertex="1" parent="1">
          <mxGeometry x="400" y="320" width="40" height="40" as="geometry" />
        </mxCell>
        <mxCell id="Z9fYmXyzhScZ4xVaVHmG-31" style="edgeStyle=orthogonalEdgeStyle;rounded=0;orthogonalLoop=1;jettySize=auto;html=1;exitX=0.5;exitY=1;exitDx=0;exitDy=0;entryX=0.5;entryY=0;entryDx=0;entryDy=0;strokeColor=#B3B3B3;" edge="1" parent="1" source="Z9fYmXyzhScZ4xVaVHmG-33" target="Z9fYmXyzhScZ4xVaVHmG-34">
          <mxGeometry relative="1" as="geometry" />
        </mxCell>
        <mxCell id="Z9fYmXyzhScZ4xVaVHmG-32" style="edgeStyle=orthogonalEdgeStyle;rounded=0;orthogonalLoop=1;jettySize=auto;html=1;exitX=1;exitY=0;exitDx=0;exitDy=0;entryX=0;entryY=1;entryDx=0;entryDy=0;curved=1;strokeColor=#00CC00;" edge="1" parent="1" source="Z9fYmXyzhScZ4xVaVHmG-33" target="Z9fYmXyzhScZ4xVaVHmG-36">
          <mxGeometry relative="1" as="geometry">
            <Array as="points">
              <mxPoint x="450" y="406" />
              <mxPoint x="450" y="194" />
            </Array>
          </mxGeometry>
        </mxCell>
        <mxCell id="Z9fYmXyzhScZ4xVaVHmG-33" value="&lt;span style=&quot;font-size: 24px;&quot;&gt;i&lt;/span&gt;" style="ellipse;whiteSpace=wrap;html=1;aspect=fixed;fillColor=#00CC00;" vertex="1" parent="1">
          <mxGeometry x="400" y="400" width="40" height="40" as="geometry" />
        </mxCell>
        <mxCell id="Z9fYmXyzhScZ4xVaVHmG-34" value="&lt;span style=&quot;font-size: 24px;&quot;&gt;&lt;font style=&quot;color: rgb(255, 255, 255);&quot;&gt;t&lt;/font&gt;&lt;/span&gt;" style="ellipse;whiteSpace=wrap;html=1;aspect=fixed;fillColor=#000000;strokeColor=#FF0000;" vertex="1" parent="1">
          <mxGeometry x="400" y="480" width="40" height="40" as="geometry" />
        </mxCell>
        <mxCell id="Z9fYmXyzhScZ4xVaVHmG-35" style="edgeStyle=orthogonalEdgeStyle;rounded=0;orthogonalLoop=1;jettySize=auto;html=1;exitX=0.5;exitY=1;exitDx=0;exitDy=0;entryX=0.5;entryY=0;entryDx=0;entryDy=0;" edge="1" parent="1" source="Z9fYmXyzhScZ4xVaVHmG-36" target="Z9fYmXyzhScZ4xVaVHmG-38">
          <mxGeometry relative="1" as="geometry" />
        </mxCell>
        <mxCell id="Z9fYmXyzhScZ4xVaVHmG-36" value="&lt;span style=&quot;font-size: 24px;&quot;&gt;i&lt;/span&gt;" style="ellipse;whiteSpace=wrap;html=1;aspect=fixed;fillColor=#00CC00;" vertex="1" parent="1">
          <mxGeometry x="520" y="160" width="40" height="40" as="geometry" />
        </mxCell>
        <mxCell id="Z9fYmXyzhScZ4xVaVHmG-37" style="edgeStyle=orthogonalEdgeStyle;rounded=0;orthogonalLoop=1;jettySize=auto;html=1;exitX=0.5;exitY=1;exitDx=0;exitDy=0;entryX=0.5;entryY=0;entryDx=0;entryDy=0;" edge="1" parent="1" source="Z9fYmXyzhScZ4xVaVHmG-38" target="Z9fYmXyzhScZ4xVaVHmG-40">
          <mxGeometry relative="1" as="geometry" />
        </mxCell>
        <mxCell id="Z9fYmXyzhScZ4xVaVHmG-38" value="&lt;span style=&quot;font-size: 24px;&quot;&gt;j&lt;/span&gt;" style="ellipse;whiteSpace=wrap;html=1;aspect=fixed;fillColor=#00CC00;" vertex="1" parent="1">
          <mxGeometry x="520" y="240" width="40" height="40" as="geometry" />
        </mxCell>
        <mxCell id="Z9fYmXyzhScZ4xVaVHmG-39" style="edgeStyle=orthogonalEdgeStyle;rounded=0;orthogonalLoop=1;jettySize=auto;html=1;exitX=0.5;exitY=1;exitDx=0;exitDy=0;entryX=0;entryY=1;entryDx=0;entryDy=0;curved=1;dashed=1;strokeColor=#B3B3B3;" edge="1" parent="1" source="Z9fYmXyzhScZ4xVaVHmG-40" target="Z9fYmXyzhScZ4xVaVHmG-4">
          <mxGeometry relative="1" as="geometry">
            <Array as="points">
              <mxPoint x="550" y="360" />
              <mxPoint x="550" y="720" />
              <mxPoint x="190" y="720" />
              <mxPoint x="190" y="194" />
            </Array>
          </mxGeometry>
        </mxCell>
        <mxCell id="Z9fYmXyzhScZ4xVaVHmG-40" value="&lt;span style=&quot;font-size: 24px;&quot;&gt;a&lt;/span&gt;" style="ellipse;whiteSpace=wrap;html=1;aspect=fixed;fillColor=#3399FF;" vertex="1" parent="1">
          <mxGeometry x="520" y="320" width="40" height="40" as="geometry" />
        </mxCell>
        <mxCell id="Z9fYmXyzhScZ4xVaVHmG-41" style="edgeStyle=orthogonalEdgeStyle;rounded=0;orthogonalLoop=1;jettySize=auto;html=1;exitX=0.5;exitY=1;exitDx=0;exitDy=0;entryX=0.5;entryY=0;entryDx=0;entryDy=0;strokeColor=#B3B3B3;" edge="1" parent="1" source="Z9fYmXyzhScZ4xVaVHmG-43" target="Z9fYmXyzhScZ4xVaVHmG-45">
          <mxGeometry relative="1" as="geometry" />
        </mxCell>
        <mxCell id="Z9fYmXyzhScZ4xVaVHmG-42" style="edgeStyle=orthogonalEdgeStyle;rounded=0;orthogonalLoop=1;jettySize=auto;html=1;exitX=1;exitY=0;exitDx=0;exitDy=0;entryX=1;entryY=1;entryDx=0;entryDy=0;curved=1;dashed=1;strokeColor=#B3B3B3;" edge="1" parent="1" source="Z9fYmXyzhScZ4xVaVHmG-43" target="Z9fYmXyzhScZ4xVaVHmG-36">
          <mxGeometry relative="1" as="geometry">
            <Array as="points">
              <mxPoint x="620" y="406" />
              <mxPoint x="620" y="194" />
            </Array>
          </mxGeometry>
        </mxCell>
        <mxCell id="Z9fYmXyzhScZ4xVaVHmG-43" value="&lt;span style=&quot;font-size: 24px;&quot;&gt;i&lt;/span&gt;" style="ellipse;whiteSpace=wrap;html=1;aspect=fixed;fillColor=#00CC00;" vertex="1" parent="1">
          <mxGeometry x="560" y="400" width="40" height="40" as="geometry" />
        </mxCell>
        <mxCell id="Z9fYmXyzhScZ4xVaVHmG-44" style="edgeStyle=orthogonalEdgeStyle;rounded=0;orthogonalLoop=1;jettySize=auto;html=1;exitX=1;exitY=0;exitDx=0;exitDy=0;entryX=1;entryY=1;entryDx=0;entryDy=0;curved=1;dashed=1;strokeColor=#B3B3B3;" edge="1" parent="1" source="Z9fYmXyzhScZ4xVaVHmG-45" target="Z9fYmXyzhScZ4xVaVHmG-38">
          <mxGeometry relative="1" as="geometry">
            <Array as="points">
              <mxPoint x="660" y="486" />
              <mxPoint x="660" y="274" />
            </Array>
          </mxGeometry>
        </mxCell>
        <mxCell id="Z9fYmXyzhScZ4xVaVHmG-45" value="&lt;span style=&quot;font-size: 24px;&quot;&gt;j&lt;/span&gt;" style="ellipse;whiteSpace=wrap;html=1;aspect=fixed;fillColor=#00CC00;strokeColor=#FF0000;" vertex="1" parent="1">
          <mxGeometry x="560" y="480" width="40" height="40" as="geometry" />
        </mxCell>
        <mxCell id="Z9fYmXyzhScZ4xVaVHmG-46" style="edgeStyle=orthogonalEdgeStyle;rounded=0;orthogonalLoop=1;jettySize=auto;html=1;exitX=0.5;exitY=1;exitDx=0;exitDy=0;entryX=0.5;entryY=0;entryDx=0;entryDy=0;" edge="1" parent="1" source="Z9fYmXyzhScZ4xVaVHmG-48" target="Z9fYmXyzhScZ4xVaVHmG-51">
          <mxGeometry relative="1" as="geometry" />
        </mxCell>
        <mxCell id="Z9fYmXyzhScZ4xVaVHmG-47" style="edgeStyle=orthogonalEdgeStyle;rounded=0;orthogonalLoop=1;jettySize=auto;html=1;exitX=1;exitY=1;exitDx=0;exitDy=0;entryX=0;entryY=0.5;entryDx=0;entryDy=0;curved=1;dashed=1;strokeColor=#B3B3B3;" edge="1" parent="1" source="Z9fYmXyzhScZ4xVaVHmG-48" target="Z9fYmXyzhScZ4xVaVHmG-5">
          <mxGeometry relative="1" as="geometry">
            <Array as="points">
              <mxPoint x="530" y="434" />
              <mxPoint x="530" y="710" />
              <mxPoint x="210" y="710" />
              <mxPoint x="210" y="260" />
            </Array>
          </mxGeometry>
        </mxCell>
        <mxCell id="Z9fYmXyzhScZ4xVaVHmG-48" value="&lt;span style=&quot;font-size: 24px;&quot;&gt;b&lt;/span&gt;" style="ellipse;whiteSpace=wrap;html=1;aspect=fixed;fillColor=#3399FF;" vertex="1" parent="1">
          <mxGeometry x="480" y="400" width="40" height="40" as="geometry" />
        </mxCell>
        <mxCell id="Z9fYmXyzhScZ4xVaVHmG-49" style="edgeStyle=orthogonalEdgeStyle;rounded=0;orthogonalLoop=1;jettySize=auto;html=1;exitX=0.5;exitY=1;exitDx=0;exitDy=0;entryX=0.5;entryY=0;entryDx=0;entryDy=0;" edge="1" parent="1" source="Z9fYmXyzhScZ4xVaVHmG-51" target="Z9fYmXyzhScZ4xVaVHmG-52">
          <mxGeometry relative="1" as="geometry" />
        </mxCell>
        <mxCell id="Z9fYmXyzhScZ4xVaVHmG-50" style="edgeStyle=orthogonalEdgeStyle;rounded=0;orthogonalLoop=1;jettySize=auto;html=1;exitX=0;exitY=1;exitDx=0;exitDy=0;entryX=0;entryY=1;entryDx=0;entryDy=0;curved=1;dashed=1;strokeColor=#3399FF;" edge="1" parent="1" source="Z9fYmXyzhScZ4xVaVHmG-51" target="Z9fYmXyzhScZ4xVaVHmG-7">
          <mxGeometry relative="1" as="geometry">
            <Array as="points">
              <mxPoint x="460" y="514" />
              <mxPoint x="460" y="690" />
              <mxPoint x="230" y="690" />
              <mxPoint x="230" y="354" />
            </Array>
          </mxGeometry>
        </mxCell>
        <mxCell id="Z9fYmXyzhScZ4xVaVHmG-51" value="&lt;span style=&quot;font-size: 24px;&quot;&gt;d&lt;/span&gt;" style="ellipse;whiteSpace=wrap;html=1;aspect=fixed;fillColor=#3399FF;" vertex="1" parent="1">
          <mxGeometry x="480" y="480" width="40" height="40" as="geometry" />
        </mxCell>
        <mxCell id="Z9fYmXyzhScZ4xVaVHmG-59" style="edgeStyle=orthogonalEdgeStyle;rounded=0;orthogonalLoop=1;jettySize=auto;html=1;exitX=1;exitY=0;exitDx=0;exitDy=0;entryX=1;entryY=0.5;entryDx=0;entryDy=0;curved=1;" edge="1" parent="1" source="Z9fYmXyzhScZ4xVaVHmG-52" target="Z9fYmXyzhScZ4xVaVHmG-3">
          <mxGeometry relative="1" as="geometry">
            <Array as="points">
              <mxPoint x="680" y="566" />
              <mxPoint x="680" y="100" />
            </Array>
          </mxGeometry>
        </mxCell>
        <mxCell id="Z9fYmXyzhScZ4xVaVHmG-52" value="&lt;span style=&quot;font-size: 24px;&quot;&gt;&lt;font style=&quot;color: rgb(255, 255, 255);&quot;&gt;f&lt;/font&gt;&lt;/span&gt;" style="ellipse;whiteSpace=wrap;html=1;aspect=fixed;fillColor=#000000;strokeColor=#FF0000;" vertex="1" parent="1">
          <mxGeometry x="480" y="560" width="40" height="40" as="geometry" />
        </mxCell>
        <mxCell id="Z9fYmXyzhScZ4xVaVHmG-53" value="" style="endArrow=classic;html=1;rounded=0;exitX=0;exitY=1;exitDx=0;exitDy=0;entryX=0.5;entryY=0;entryDx=0;entryDy=0;" edge="1" parent="1" source="Z9fYmXyzhScZ4xVaVHmG-40" target="Z9fYmXyzhScZ4xVaVHmG-48">
          <mxGeometry width="50" height="50" relative="1" as="geometry">
            <mxPoint x="380" y="420" as="sourcePoint" />
            <mxPoint x="430" y="370" as="targetPoint" />
          </mxGeometry>
        </mxCell>
        <mxCell id="Z9fYmXyzhScZ4xVaVHmG-54" value="" style="endArrow=classic;html=1;rounded=0;exitX=1;exitY=1;exitDx=0;exitDy=0;entryX=0.5;entryY=0;entryDx=0;entryDy=0;strokeColor=#B3B3B3;" edge="1" parent="1" source="Z9fYmXyzhScZ4xVaVHmG-40" target="Z9fYmXyzhScZ4xVaVHmG-43">
          <mxGeometry width="50" height="50" relative="1" as="geometry">
            <mxPoint x="380" y="420" as="sourcePoint" />
            <mxPoint x="430" y="370" as="targetPoint" />
          </mxGeometry>
        </mxCell>
        <mxCell id="Z9fYmXyzhScZ4xVaVHmG-55" value="" style="endArrow=classic;html=1;rounded=0;exitX=0;exitY=1;exitDx=0;exitDy=0;entryX=0.5;entryY=0;entryDx=0;entryDy=0;" edge="1" parent="1" source="Z9fYmXyzhScZ4xVaVHmG-3" target="Z9fYmXyzhScZ4xVaVHmG-4">
          <mxGeometry width="50" height="50" relative="1" as="geometry">
            <mxPoint x="380" y="230" as="sourcePoint" />
            <mxPoint x="430" y="180" as="targetPoint" />
          </mxGeometry>
        </mxCell>
        <mxCell id="Z9fYmXyzhScZ4xVaVHmG-56" value="" style="endArrow=classic;html=1;rounded=0;exitX=1;exitY=1;exitDx=0;exitDy=0;entryX=0.5;entryY=0;entryDx=0;entryDy=0;strokeColor=#B3B3B3;" edge="1" parent="1" source="Z9fYmXyzhScZ4xVaVHmG-3" target="Z9fYmXyzhScZ4xVaVHmG-36">
          <mxGeometry width="50" height="50" relative="1" as="geometry">
            <mxPoint x="380" y="230" as="sourcePoint" />
            <mxPoint x="430" y="180" as="targetPoint" />
          </mxGeometry>
        </mxCell>
        <mxCell id="Z9fYmXyzhScZ4xVaVHmG-57" value="根节点" style="text;html=1;align=center;verticalAlign=middle;resizable=0;points=[];autosize=1;strokeColor=none;fillColor=none;fontColor=#FFFFFF;" vertex="1" parent="1">
          <mxGeometry x="389" y="85" width="60" height="30" as="geometry" />
        </mxCell>
        <mxCell id="Z9fYmXyzhScZ4xVaVHmG-58" value="NULL" style="text;html=1;align=center;verticalAlign=middle;resizable=0;points=[];autosize=1;strokeColor=none;fillColor=none;" vertex="1" parent="1">
          <mxGeometry x="395" y="18" width="50" height="30" as="geometry" />
        </mxCell>
      </root>
    </mxGraphModel>
  </diagram>
</mxfile>
